<svg xmlns="http://www.w3.org/2000/svg" viewBox="0 0 512 512" fill="none">
  <defs>
    <linearGradient id="alienFill" x1="108" y1="84" x2="404" y2="420" gradientUnits="userSpaceOnUse">
      <stop offset="0" stop-color="#ceff8d"/>
      <stop offset="0.55" stop-color="#9cea55"/>
      <stop offset="1" stop-color="#63b935"/>
    </linearGradient>
  </defs>

  <path d="M256 54C340 54 414 123 414 217C414 329 334 444 256 444C178 444 98 329 98 217C98 123 172 54 256 54Z" fill="url(#alienFill)"/>
  <path d="M171 163C152 183 146 208 144 233C142 264 152 297 172 324C136 303 116 262 116 217C116 133 180 72 256 72C332 72 396 133 396 217C396 262 376 303 340 324C360 297 370 264 368 233C366 208 360 183 341 163C319 140 291 128 256 128C221 128 193 140 171 163Z" fill="#7fd346" opacity="0.34"/>

  <ellipse cx="196" cy="250" rx="42" ry="28" transform="rotate(-18 196 250)" fill="#050505"/>
  <ellipse cx="316" cy="250" rx="42" ry="28" transform="rotate(18 316 250)" fill="#050505"/>
  <path d="M213 336C228 346 243 350 256 350C269 350 284 346 299 336" stroke="#1d3a11" stroke-width="16" stroke-linecap="round"/>
</svg>
